<svg xmlns="http://www.w3.org/2000/svg" viewBox="0 0 24 24" width="48" height="48"><title>TypeSafe</title><path fill="#E551BA" d="M9.95 21.66L7.89 20.32L7.89 18.37L7.89 16.42L6.17 15.30L4.45 14.18L4.46 10.04L4.48 5.89L8.24 3.45L12.00 1.01L14.05 2.34L16.10 3.68L16.11 5.56L16.11 7.44L16.28 7.58C16.38 7.65 17.15 8.16 18.00 8.70L19.55 9.69L19.53 13.90L19.52 18.11L15.76 20.55L12.00 22.99L9.95 21.66ZM14.77 19.52C16.27 18.55 17.50 17.74 17.50 17.71C17.50 17.65 15.52 16.38 15.42 16.38C15.29 16.38 9.98 19.85 9.98 19.93C9.98 20.00 11.93 21.32 12.01 21.29C12.03 21.28 13.28 20.48 14.77 19.52ZM12.28 16.69L14.71 15.12L14.71 12.17C14.71 10.54 14.69 9.21 14.67 9.21C14.65 9.21 14.20 9.49 13.68 9.83L12.73 10.46L12.73 12.32L12.73 14.18L11.01 15.30L9.29 16.41L9.29 17.51L9.29 18.61L9.57 18.44C9.72 18.35 10.94 17.56 12.28 16.69ZM18.16 13.44L18.16 10.47L17.18 9.84C16.65 9.50 16.18 9.21 16.16 9.21C16.13 9.21 16.11 10.53 16.11 12.14C16.11 14.47 16.13 15.08 16.20 15.14C16.33 15.25 18.10 16.40 18.13 16.40C18.15 16.40 18.16 15.07 18.16 13.44ZM9.57 14.55C10.08 14.22 10.54 13.92 10.59 13.87C10.68 13.79 10.32 13.54 8.73 12.53C8.58 12.44 8.48 12.49 7.54 13.11C6.97 13.48 6.50 13.80 6.50 13.82C6.51 13.88 8.49 15.15 8.58 15.15C8.61 15.15 9.06 14.88 9.57 14.55ZM11.26 11.47L11.26 10.42L10.34 9.84C9.84 9.51 9.39 9.24 9.35 9.23C9.31 9.21 9.29 9.63 9.29 10.22L9.29 11.23L10.26 11.87C10.79 12.21 11.24 12.50 11.25 12.51C11.26 12.51 11.27 12.04 11.26 11.47ZM6.94 11.82L7.89 11.20L7.89 9.33L7.89 7.47L9.58 6.38L11.26 5.29L11.27 4.24L11.27 3.20L11.09 3.29C11.00 3.34 9.78 4.13 8.38 5.03L5.84 6.68L5.84 9.56C5.84 11.37 5.87 12.44 5.91 12.44C5.95 12.44 6.41 12.16 6.94 11.82ZM13.13 8.51L14.13 7.87L13.09 7.18C12.51 6.81 12.02 6.50 12.00 6.50C11.98 6.50 11.49 6.81 10.92 7.18L9.87 7.87L10.88 8.54C11.44 8.90 11.94 9.19 12.01 9.18C12.07 9.17 12.58 8.87 13.13 8.51ZM14.71 5.47L14.71 4.45L13.76 3.82C13.23 3.48 12.78 3.20 12.77 3.20C12.75 3.20 12.73 3.67 12.73 4.25L12.73 5.29L13.67 5.89C14.18 6.23 14.63 6.50 14.66 6.50C14.69 6.50 14.71 6.04 14.71 5.47Z"/></svg>